<svg xmlns="http://www.w3.org/2000/svg" xmlns:xlink="http://www.w3.org/1999/xlink" contentStyleType="text/css" height="688.8px" preserveAspectRatio="none" style="width:2773px;height:688px;background:#FFFFFF;" version="1.1" viewBox="0 0 2773 688" width="2773.6px" zoomAndPan="magnify"><defs/><g><!--cluster algonquin--><g id="cluster_algonquin"><path d="M6.8,4.8 L65.4977,4.8 A3,3 0 0 1 67.4977,6.8 L73.0977,22.7906 L2251.6,22.7906 A2,2 0 0 1 2253.6,24.7906 L2253.6,681.816 A2,2 0 0 1 2251.6,683.816 L6.8,683.816 A2,2 0 0 1 4.8,681.816 L4.8,6.8 A2,2 0 0 1 6.8,4.8 " fill="none" style="stroke:#000000;stroke-width:1.2000000000000002;"/><line style="stroke:#000000;stroke-width:1.2000000000000002;" x1="4.8" x2="73.0977" y1="22.7906" y2="22.7906"/><text fill="#000000" font-family="sans-serif" font-size="11.2" font-weight="bold" lengthAdjust="spacing" textLength="57.8977" x="8" y="17.2281">algonquin</text></g><!--cluster cst8288--><g id="cluster_cst8288"><path d="M26,39.2 L73.1859,39.2 A3,3 0 0 1 75.1859,41.2 L80.7859,57.1906 L2232.4,57.1906 A2,2 0 0 1 2234.4,59.1906 L2234.4,662.616 A2,2 0 0 1 2232.4,664.616 L26,664.616 A2,2 0 0 1 24,662.616 L24,41.2 A2,2 0 0 1 26,39.2 " fill="none" style="stroke:#000000;stroke-width:1.2000000000000002;"/><line style="stroke:#000000;stroke-width:1.2000000000000002;" x1="24" x2="80.7859" y1="57.1906" y2="57.1906"/><text fill="#000000" font-family="sans-serif" font-size="11.2" font-weight="bold" lengthAdjust="spacing" textLength="46.3859" x="27.2" y="51.6281">cst8288</text></g><!--cluster fall24--><g id="cluster_fall24"><path d="M45.2,73.6 L79.2883,73.6 A3,3 0 0 1 81.2883,75.6 L86.8883,91.5906 L2213.2,91.5906 A2,2 0 0 1 2215.2,93.5906 L2215.2,643.416 A2,2 0 0 1 2213.2,645.416 L45.2,645.416 A2,2 0 0 1 43.2,643.416 L43.2,75.6 A2,2 0 0 1 45.2,73.6 " fill="none" style="stroke:#000000;stroke-width:1.2000000000000002;"/><line style="stroke:#000000;stroke-width:1.2000000000000002;" x1="43.2" x2="86.8883" y1="91.5906" y2="91.5906"/><text fill="#000000" font-family="sans-serif" font-size="11.2" font-weight="bold" lengthAdjust="spacing" textLength="33.2883" x="46.4" y="86.0281">fall24</text></g><!--cluster assignment1--><g id="cluster_assignment1"><path d="M64.4,108 L139.5422,108 A3,3 0 0 1 141.5422,110 L147.1422,125.9906 L2194,125.9906 A2,2 0 0 1 2196,127.9906 L2196,624.216 A2,2 0 0 1 2194,626.216 L64.4,626.216 A2,2 0 0 1 62.4,624.216 L62.4,110 A2,2 0 0 1 64.4,108 " fill="none" style="stroke:#000000;stroke-width:1.2000000000000002;"/><line style="stroke:#000000;stroke-width:1.2000000000000002;" x1="62.4" x2="147.1422" y1="125.9906" y2="125.9906"/><text fill="#000000" font-family="sans-serif" font-size="11.2" font-weight="bold" lengthAdjust="spacing" textLength="74.3422" x="65.6" y="120.4281">assignment1</text></g><!--cluster management--><g id="cluster_management"><path d="M442.8,162.192 L518.2539,162.192 A3,3 0 0 1 520.2539,164.192 L525.8539,180.1826 L802,180.1826 A2,2 0 0 1 804,182.1826 L804,305.344 A2,2 0 0 1 802,307.344 L442.8,307.344 A2,2 0 0 1 440.8,305.344 L440.8,164.192 A2,2 0 0 1 442.8,162.192 " fill="none" style="stroke:#000000;stroke-width:1.2000000000000002;"/><line style="stroke:#000000;stroke-width:1.2000000000000002;" x1="440.8" x2="525.8539" y1="180.1826" y2="180.1826"/><text fill="#000000" font-family="sans-serif" font-size="11.2" font-weight="bold" lengthAdjust="spacing" textLength="74.6539" x="444" y="174.6201">management</text></g><!--cluster patient--><g id="cluster_patient"><path d="M83.6,181.976 L125.0438,181.976 A3,3 0 0 1 127.0438,183.976 L132.6438,199.9666 L419.6,199.9666 A2,2 0 0 1 421.6,201.9666 L421.6,605.016 A2,2 0 0 1 419.6,607.016 L83.6,607.016 A2,2 0 0 1 81.6,605.016 L81.6,183.976 A2,2 0 0 1 83.6,181.976 " fill="none" style="stroke:#000000;stroke-width:1.2000000000000002;"/><line style="stroke:#000000;stroke-width:1.2000000000000002;" x1="81.6" x2="132.6438" y1="199.9666" y2="199.9666"/><text fill="#000000" font-family="sans-serif" font-size="11.2" font-weight="bold" lengthAdjust="spacing" textLength="40.6438" x="84.8" y="194.4041">patient</text></g><!--cluster prescription--><g id="cluster_prescription"><path d="M825.2,142.4 L896.2133,142.4 A3,3 0 0 1 898.2133,144.4 L903.8133,160.3906 L1586.8,160.3906 A2,2 0 0 1 1588.8,162.3906 L1588.8,545.656 A2,2 0 0 1 1586.8,547.656 L825.2,547.656 A2,2 0 0 1 823.2,545.656 L823.2,144.4 A2,2 0 0 1 825.2,142.4 " fill="none" style="stroke:#000000;stroke-width:1.2000000000000002;"/><line style="stroke:#000000;stroke-width:1.2000000000000002;" x1="823.2" x2="903.8133" y1="160.3906" y2="160.3906"/><text fill="#000000" font-family="sans-serif" font-size="11.2" font-weight="bold" lengthAdjust="spacing" textLength="70.2133" x="826.4" y="154.8281">prescription</text></g><!--cluster treatment--><g id="cluster_treatment"><path d="M1610,188.568 L1667.4344,188.568 A3,3 0 0 1 1669.4344,190.568 L1675.0344,206.5586 L2174.8,206.5586 A2,2 0 0 1 2176.8,208.5586 L2176.8,545.656 A2,2 0 0 1 2174.8,547.656 L1610,547.656 A2,2 0 0 1 1608,545.656 L1608,190.568 A2,2 0 0 1 1610,188.568 " fill="none" style="stroke:#000000;stroke-width:1.2000000000000002;"/><line style="stroke:#000000;stroke-width:1.2000000000000002;" x1="1608" x2="1675.0344" y1="206.5586" y2="206.5586"/><text fill="#000000" font-family="sans-serif" font-size="11.2" font-weight="bold" lengthAdjust="spacing" textLength="56.6344" x="1611.2" y="200.9961">treatment</text></g><!--cluster alognquin--><g id="cluster_alognquin"><path d="M2274.8,12.824 L2333.4977,12.824 A3,3 0 0 1 2335.4977,14.824 L2341.0977,30.8146 L2766,30.8146 A2,2 0 0 1 2768,32.8146 L2768,409.112 A2,2 0 0 1 2766,411.112 L2274.8,411.112 A2,2 0 0 1 2272.8,409.112 L2272.8,14.824 A2,2 0 0 1 2274.8,12.824 " fill="none" style="stroke:#000000;stroke-width:1.2000000000000002;"/><line style="stroke:#000000;stroke-width:1.2000000000000002;" x1="2272.8" x2="2341.0977" y1="30.8146" y2="30.8146"/><text fill="#000000" font-family="sans-serif" font-size="11.2" font-weight="bold" lengthAdjust="spacing" textLength="57.8977" x="2276" y="25.2521">alognquin</text></g><!--cluster cst8288--><g id="cluster_cst8288"><path d="M2294,47.224 L2341.1859,47.224 A3,3 0 0 1 2343.1859,49.224 L2348.7859,65.2146 L2746.8,65.2146 A2,2 0 0 1 2748.8,67.2146 L2748.8,389.912 A2,2 0 0 1 2746.8,391.912 L2294,391.912 A2,2 0 0 1 2292,389.912 L2292,49.224 A2,2 0 0 1 2294,47.224 " fill="none" style="stroke:#000000;stroke-width:1.2000000000000002;"/><line style="stroke:#000000;stroke-width:1.2000000000000002;" x1="2292" x2="2348.7859" y1="65.2146" y2="65.2146"/><text fill="#000000" font-family="sans-serif" font-size="11.2" font-weight="bold" lengthAdjust="spacing" textLength="46.3859" x="2295.2" y="59.6521">cst8288</text></g><!--cluster fall24--><g id="cluster_fall24"><path d="M2313.2,81.624 L2347.2883,81.624 A3,3 0 0 1 2349.2883,83.624 L2354.8883,99.6146 L2727.6,99.6146 A2,2 0 0 1 2729.6,101.6146 L2729.6,370.712 A2,2 0 0 1 2727.6,372.712 L2313.2,372.712 A2,2 0 0 1 2311.2,370.712 L2311.2,83.624 A2,2 0 0 1 2313.2,81.624 " fill="none" style="stroke:#000000;stroke-width:1.2000000000000002;"/><line style="stroke:#000000;stroke-width:1.2000000000000002;" x1="2311.2" x2="2354.8883" y1="99.6146" y2="99.6146"/><text fill="#000000" font-family="sans-serif" font-size="11.2" font-weight="bold" lengthAdjust="spacing" textLength="33.2883" x="2314.4" y="94.0521">fall24</text></g><!--cluster assignment1--><g id="cluster_assignment1"><path d="M2332.4,116.024 L2407.5422,116.024 A3,3 0 0 1 2409.5422,118.024 L2415.1422,134.0146 L2708.4,134.0146 A2,2 0 0 1 2710.4,136.0146 L2710.4,351.512 A2,2 0 0 1 2708.4,353.512 L2332.4,353.512 A2,2 0 0 1 2330.4,351.512 L2330.4,118.024 A2,2 0 0 1 2332.4,116.024 " fill="none" style="stroke:#000000;stroke-width:1.2000000000000002;"/><line style="stroke:#000000;stroke-width:1.2000000000000002;" x1="2330.4" x2="2415.1422" y1="134.0146" y2="134.0146"/><text fill="#000000" font-family="sans-serif" font-size="11.2" font-weight="bold" lengthAdjust="spacing" textLength="74.3422" x="2333.6" y="128.4521">assignment1</text></g><!--class PatientManagement--><g id="elem_PatientManagement"><rect codeLine="4" fill="#F1F1F1" height="104.3531" id="PatientManagement" rx="2" ry="2" style="stroke:#181818;stroke-width:0.4000000000000001;" width="338.3703" x="453.216" y="190.192"/><ellipse cx="565.3965" cy="202.992" fill="#ADD1B2" rx="8.8" ry="8.8" style="stroke:#181818;stroke-width:0.8000000000000002;"/><path d="M567.775,207.5065 Q567.3101,207.7455 566.7988,207.865 Q566.2875,207.9846 565.723,207.9846 Q563.7176,207.9846 562.6617,206.6631 Q561.6058,205.3416 561.6058,202.8447 Q561.6058,200.3412 562.6617,199.0197 Q563.7176,197.6983 565.723,197.6983 Q566.2875,197.6983 566.8055,197.8178 Q567.3234,197.9373 567.775,198.1764 L567.775,200.3545 Q567.2703,199.8897 566.7955,199.6738 Q566.3207,199.458 565.816,199.458 Q564.7402,199.458 564.1924,200.3113 Q563.6445,201.1647 563.6445,202.8447 Q563.6445,204.5182 564.1924,205.3715 Q564.7402,206.2248 565.816,206.2248 Q566.3207,206.2248 566.7955,206.009 Q567.2703,205.7932 567.775,205.3283 Z " fill="#000000"/><text fill="#000000" font-family="sans-serif" font-size="11.2" lengthAdjust="spacing" textLength="107.2094" x="581.7965" y="207.2248">PatientManagement</text><line style="stroke:#181818;stroke-width:0.4000000000000001;" x1="454.016" x2="790.7863" y1="215.792" y2="215.792"/><line style="stroke:#181818;stroke-width:0.4000000000000001;" x1="454.016" x2="790.7863" y1="222.192" y2="222.192"/><ellipse cx="462.016" cy="233.1873" fill="#84BE84" rx="2.4" ry="2.4" style="stroke:#038048;stroke-width:0.8000000000000002;"/><text fill="#000000" font-family="sans-serif" font-size="11.2" lengthAdjust="spacing" textLength="240.8109" x="469.216" y="236.2201">validatePatientData(Patient patient): boolean</text><ellipse cx="462.016" cy="246.3779" fill="#84BE84" rx="2.4" ry="2.4" style="stroke:#038048;stroke-width:0.8000000000000002;"/><text fill="#000000" font-family="sans-serif" font-size="11.2" lengthAdjust="spacing" textLength="200.7523" x="469.216" y="249.4108">calculatePatientAge(String dob): long</text><ellipse cx="462.016" cy="259.5686" fill="#84BE84" rx="2.4" ry="2.4" style="stroke:#038048;stroke-width:0.8000000000000002;"/><text fill="#000000" font-family="sans-serif" font-size="11.2" lengthAdjust="spacing" textLength="197.7336" x="469.216" y="262.6014">determineLifeStage(long age): String</text><ellipse cx="462.016" cy="272.7592" fill="#84BE84" rx="2.4" ry="2.4" style="stroke:#038048;stroke-width:0.8000000000000002;"/><text fill="#000000" font-family="sans-serif" font-size="11.2" lengthAdjust="spacing" textLength="227.9539" x="469.216" y="275.792">createTreatmentPlan(Patient patient): void</text><ellipse cx="462.016" cy="285.9498" fill="#84BE84" rx="2.4" ry="2.4" style="stroke:#038048;stroke-width:0.8000000000000002;"/><text fill="#000000" font-family="sans-serif" font-size="11.2" lengthAdjust="spacing" textLength="317.5703" x="469.216" y="288.9826">generatePrescription(Patient patient, String filename): void</text></g><!--class Patient--><g id="elem_Patient"><rect codeLine="14" fill="#F1F1F1" height="170.3063" id="Patient" rx="2" ry="2" style="stroke:#181818;stroke-width:0.4000000000000001;" width="159.6406" x="248.976" y="423.912"/><ellipse cx="306.8053" cy="436.712" fill="#A9DCDF" rx="8.8" ry="8.8" style="stroke:#181818;stroke-width:0.8000000000000002;"/><path d="M306.8959,432.9905 L305.9729,437.0479 L307.8256,437.0479 Z M305.7006,431.1975 L308.0979,431.1975 L310.774,441.112 L308.8151,441.112 L308.2041,438.6616 L305.5811,438.6616 L304.9834,441.112 L303.0244,441.112 Z " fill="#000000"/><text fill="#000000" font-family="sans-serif" font-size="11.2" font-style="italic" lengthAdjust="spacing" textLength="37.182" x="323.2053" y="440.9448">Patient</text><line style="stroke:#181818;stroke-width:0.4000000000000001;" x1="249.776" x2="407.8166" y1="449.512" y2="449.512"/><rect fill="none" height="4.8" style="stroke:#C82930;stroke-width:0.8000000000000002;" width="4.8" x="255.376" y="458.1073"/><text fill="#000000" font-family="sans-serif" font-size="11.2" lengthAdjust="spacing" textLength="49.35" x="264.976" y="463.5401">id: String</text><rect fill="none" height="4.8" style="stroke:#C82930;stroke-width:0.8000000000000002;" width="4.8" x="255.376" y="471.2979"/><text fill="#000000" font-family="sans-serif" font-size="11.2" lengthAdjust="spacing" textLength="68.8953" x="264.976" y="476.7308">name: String</text><rect fill="none" height="4.8" style="stroke:#C82930;stroke-width:0.8000000000000002;" width="4.8" x="255.376" y="484.4886"/><text fill="#000000" font-family="sans-serif" font-size="11.2" lengthAdjust="spacing" textLength="68.4195" x="264.976" y="489.9214">email: String</text><rect fill="none" height="4.8" style="stroke:#C82930;stroke-width:0.8000000000000002;" width="4.8" x="255.376" y="497.6792"/><text fill="#000000" font-family="sans-serif" font-size="11.2" lengthAdjust="spacing" textLength="116.6867" x="264.976" y="503.112">phoneNumber: String</text><rect fill="none" height="4.8" style="stroke:#C82930;stroke-width:0.8000000000000002;" width="4.8" x="255.376" y="510.8698"/><text fill="#000000" font-family="sans-serif" font-size="11.2" lengthAdjust="spacing" textLength="100.9477" x="264.976" y="516.3026">dateOfBirth: String</text><rect fill="none" height="4.8" style="stroke:#C82930;stroke-width:0.8000000000000002;" width="4.8" x="255.376" y="524.0604"/><text fill="#000000" font-family="sans-serif" font-size="11.2" lengthAdjust="spacing" textLength="50.5477" x="264.976" y="529.4933">age: long</text><rect fill="none" height="4.8" style="stroke:#C82930;stroke-width:0.8000000000000002;" width="4.8" x="255.376" y="537.2511"/><text fill="#000000" font-family="sans-serif" font-size="11.2" lengthAdjust="spacing" textLength="85.5258" x="264.976" y="542.6839">lifeStage: String</text><rect fill="none" height="4.8" style="stroke:#C82930;stroke-width:0.8000000000000002;" width="4.8" x="255.376" y="550.4417"/><text fill="#000000" font-family="sans-serif" font-size="11.2" lengthAdjust="spacing" textLength="138.8406" x="264.976" y="555.8745">plannedTreatment: String</text><rect fill="none" height="4.8" style="stroke:#C82930;stroke-width:0.8000000000000002;" width="4.8" x="255.376" y="563.6323"/><text fill="#000000" font-family="sans-serif" font-size="11.2" lengthAdjust="spacing" textLength="137.118" x="264.976" y="569.0651">prescription: Prescription</text><line style="stroke:#181818;stroke-width:0.4000000000000001;" x1="249.776" x2="407.8166" y1="574.6276" y2="574.6276"/><ellipse cx="257.776" cy="585.6229" fill="#84BE84" rx="2.4" ry="2.4" style="stroke:#038048;stroke-width:0.8000000000000002;"/><text fill="#000000" font-family="sans-serif" font-size="11.2" lengthAdjust="spacing" textLength="68.4523" x="264.976" y="588.6558">admit(): void</text></g><!--class Inpatient--><g id="elem_Inpatient"><rect codeLine="26" fill="#F1F1F1" height="64.7813" id="Inpatient" rx="2" ry="2" style="stroke:#181818;stroke-width:0.4000000000000001;" width="132.2148" x="94.696" y="209.976"/><ellipse cx="133.2944" cy="222.776" fill="#ADD1B2" rx="8.8" ry="8.8" style="stroke:#181818;stroke-width:0.8000000000000002;"/><path d="M135.673,227.2905 Q135.2081,227.5295 134.6968,227.649 Q134.1855,227.7686 133.621,227.7686 Q131.6155,227.7686 130.5597,226.4471 Q129.5038,225.1256 129.5038,222.6287 Q129.5038,220.1252 130.5597,218.8037 Q131.6155,217.4823 133.621,217.4823 Q134.1855,217.4823 134.7034,217.6018 Q135.2214,217.7213 135.673,217.9604 L135.673,220.1385 Q135.1683,219.6737 134.6935,219.4578 Q134.2187,219.242 133.714,219.242 Q132.6382,219.242 132.0903,220.0953 Q131.5425,220.9487 131.5425,222.6287 Q131.5425,224.3022 132.0903,225.1555 Q132.6382,226.0088 133.714,226.0088 Q134.2187,226.0088 134.6935,225.793 Q135.1683,225.5772 135.673,225.1123 Z " fill="#000000"/><text fill="#000000" font-family="sans-serif" font-size="11.2" lengthAdjust="spacing" textLength="48.218" x="149.6944" y="227.0088">Inpatient</text><line style="stroke:#181818;stroke-width:0.4000000000000001;" x1="95.496" x2="226.1108" y1="235.576" y2="235.576"/><rect fill="none" height="4.8" style="stroke:#C82930;stroke-width:0.8000000000000002;" width="4.8" x="101.096" y="244.1713"/><text fill="#000000" font-family="sans-serif" font-size="11.2" lengthAdjust="spacing" textLength="111.4148" x="110.696" y="249.6041">roomNumber: String</text><line style="stroke:#181818;stroke-width:0.4000000000000001;" x1="95.496" x2="226.1108" y1="255.1666" y2="255.1666"/><ellipse cx="103.496" cy="266.1619" fill="#84BE84" rx="2.4" ry="2.4" style="stroke:#038048;stroke-width:0.8000000000000002;"/><text fill="#000000" font-family="sans-serif" font-size="11.2" lengthAdjust="spacing" textLength="68.4523" x="110.696" y="269.1948">admit(): void</text></g><!--class Outpatient--><g id="elem_Outpatient"><rect codeLine="30" fill="#F1F1F1" height="64.7813" id="Outpatient" rx="2" ry="2" style="stroke:#181818;stroke-width:0.4000000000000001;" width="154.243" x="254.88" y="209.976"/><ellipse cx="299.6609" cy="222.776" fill="#ADD1B2" rx="8.8" ry="8.8" style="stroke:#181818;stroke-width:0.8000000000000002;"/><path d="M302.0394,227.2905 Q301.5745,227.5295 301.0632,227.649 Q300.5519,227.7686 299.9874,227.7686 Q297.982,227.7686 296.9261,226.4471 Q295.8702,225.1256 295.8702,222.6287 Q295.8702,220.1252 296.9261,218.8037 Q297.982,217.4823 299.9874,217.4823 Q300.5519,217.4823 301.0698,217.6018 Q301.5878,217.7213 302.0394,217.9604 L302.0394,220.1385 Q301.5347,219.6737 301.0599,219.4578 Q300.5851,219.242 300.0804,219.242 Q299.0046,219.242 298.4568,220.0953 Q297.9089,220.9487 297.9089,222.6287 Q297.9089,224.3022 298.4568,225.1555 Q299.0046,226.0088 300.0804,226.0088 Q300.5851,226.0088 301.0599,225.793 Q301.5347,225.5772 302.0394,225.1123 Z " fill="#000000"/><text fill="#000000" font-family="sans-serif" font-size="11.2" lengthAdjust="spacing" textLength="57.8813" x="316.0609" y="227.0088">Outpatient</text><line style="stroke:#181818;stroke-width:0.4000000000000001;" x1="255.68" x2="408.323" y1="235.576" y2="235.576"/><rect fill="none" height="4.8" style="stroke:#C82930;stroke-width:0.8000000000000002;" width="4.8" x="261.28" y="244.1713"/><text fill="#000000" font-family="sans-serif" font-size="11.2" lengthAdjust="spacing" textLength="133.443" x="270.88" y="249.6041">appointmentDate: String</text><line style="stroke:#181818;stroke-width:0.4000000000000001;" x1="255.68" x2="408.323" y1="255.1666" y2="255.1666"/><ellipse cx="263.68" cy="266.1619" fill="#84BE84" rx="2.4" ry="2.4" style="stroke:#038048;stroke-width:0.8000000000000002;"/><text fill="#000000" font-family="sans-serif" font-size="11.2" lengthAdjust="spacing" textLength="68.4523" x="270.88" y="269.1948">admit(): void</text></g><!--class PrescriptionService--><g id="elem_PrescriptionService"><rect codeLine="39" fill="#F1F1F1" height="51.5906" id="PrescriptionService" rx="2" ry="2" style="stroke:#181818;stroke-width:0.4000000000000001;" width="258.1109" x="835.744" y="483.264"/><ellipse cx="910.1737" cy="496.064" fill="#B4A7E5" rx="8.8" ry="8.8" style="stroke:#181818;stroke-width:0.8000000000000002;"/><path d="M906.9159,492.6761 L906.9159,490.9495 L912.8194,490.9495 L912.8194,492.6761 L910.8471,492.6761 L910.8471,499.1374 L912.8194,499.1374 L912.8194,500.864 L906.9159,500.864 L906.9159,499.1374 L908.8881,499.1374 L908.8881,492.6761 Z " fill="#000000"/><text fill="#000000" font-family="sans-serif" font-size="11.2" font-style="italic" lengthAdjust="spacing" textLength="102.4516" x="926.5737" y="500.2968">PrescriptionService</text><line style="stroke:#181818;stroke-width:0.4000000000000001;" x1="836.544" x2="1093.0549" y1="508.864" y2="508.864"/><line style="stroke:#181818;stroke-width:0.4000000000000001;" x1="836.544" x2="1093.0549" y1="515.264" y2="515.264"/><ellipse cx="844.544" cy="526.2593" fill="#84BE84" rx="2.4" ry="2.4" style="stroke:#038048;stroke-width:0.8000000000000002;"/><text fill="#000000" font-family="sans-serif" font-size="11.2" lengthAdjust="spacing" textLength="237.3109" x="851.744" y="529.2921">generatePrescription(Patient patient): String</text></g><!--class OnlinePrescriptionService--><g id="elem_OnlinePrescriptionService"><rect codeLine="42" fill="#F1F1F1" height="51.5906" id="OnlinePrescriptionService" rx="2" ry="2" style="stroke:#181818;stroke-width:0.4000000000000001;" width="258.1109" x="835.744" y="216.568"/><ellipse cx="892.5151" cy="229.368" fill="#ADD1B2" rx="8.8" ry="8.8" style="stroke:#181818;stroke-width:0.8000000000000002;"/><path d="M894.8936,233.8825 Q894.4288,234.1215 893.9174,234.241 Q893.4061,234.3606 892.8417,234.3606 Q890.8362,234.3606 889.7803,233.0391 Q888.7245,231.7176 888.7245,229.2207 Q888.7245,226.7172 889.7803,225.3957 Q890.8362,224.0743 892.8417,224.0743 Q893.4061,224.0743 893.9241,224.1938 Q894.442,224.3133 894.8936,224.5524 L894.8936,226.7305 Q894.3889,226.2657 893.9141,226.0498 Q893.4393,225.834 892.9346,225.834 Q891.8588,225.834 891.311,226.6873 Q890.7631,227.5407 890.7631,229.2207 Q890.7631,230.8942 891.311,231.7475 Q891.8588,232.6008 892.9346,232.6008 Q893.4393,232.6008 893.9141,232.385 Q894.3889,232.1692 894.8936,231.7043 Z " fill="#000000"/><text fill="#000000" font-family="sans-serif" font-size="11.2" lengthAdjust="spacing" textLength="137.7688" x="908.9151" y="233.6008">OnlinePrescriptionService</text><line style="stroke:#181818;stroke-width:0.4000000000000001;" x1="836.544" x2="1093.0549" y1="242.168" y2="242.168"/><line style="stroke:#181818;stroke-width:0.4000000000000001;" x1="836.544" x2="1093.0549" y1="248.568" y2="248.568"/><ellipse cx="844.544" cy="259.5633" fill="#84BE84" rx="2.4" ry="2.4" style="stroke:#038048;stroke-width:0.8000000000000002;"/><text fill="#000000" font-family="sans-serif" font-size="11.2" lengthAdjust="spacing" textLength="237.3109" x="851.744" y="262.5961">generatePrescription(Patient patient): String</text></g><!--class PrintablePrescriptionService--><g id="elem_PrintablePrescriptionService"><rect codeLine="45" fill="#F1F1F1" height="51.5906" id="PrintablePrescriptionService" rx="2" ry="2" style="stroke:#181818;stroke-width:0.4000000000000001;" width="258.1109" x="1122.144" y="216.568"/><ellipse cx="1172.6424" cy="229.368" fill="#ADD1B2" rx="8.8" ry="8.8" style="stroke:#181818;stroke-width:0.8000000000000002;"/><path d="M1175.021,233.8825 Q1174.5561,234.1215 1174.0448,234.241 Q1173.5335,234.3606 1172.969,234.3606 Q1170.9635,234.3606 1169.9077,233.0391 Q1168.8518,231.7176 1168.8518,229.2207 Q1168.8518,226.7172 1169.9077,225.3957 Q1170.9635,224.0743 1172.969,224.0743 Q1173.5335,224.0743 1174.0514,224.1938 Q1174.5694,224.3133 1175.021,224.5524 L1175.021,226.7305 Q1174.5163,226.2657 1174.0415,226.0498 Q1173.5667,225.834 1173.062,225.834 Q1171.9862,225.834 1171.4383,226.6873 Q1170.8905,227.5407 1170.8905,229.2207 Q1170.8905,230.8942 1171.4383,231.7475 Q1171.9862,232.6008 1173.062,232.6008 Q1173.5667,232.6008 1174.0415,232.385 Q1174.5163,232.1692 1175.021,231.7043 Z " fill="#000000"/><text fill="#000000" font-family="sans-serif" font-size="11.2" lengthAdjust="spacing" textLength="150.3141" x="1189.0424" y="233.6008">PrintablePrescriptionService</text><line style="stroke:#181818;stroke-width:0.4000000000000001;" x1="1122.944" x2="1379.4549" y1="242.168" y2="242.168"/><line style="stroke:#181818;stroke-width:0.4000000000000001;" x1="1122.944" x2="1379.4549" y1="248.568" y2="248.568"/><ellipse cx="1130.944" cy="259.5633" fill="#84BE84" rx="2.4" ry="2.4" style="stroke:#038048;stroke-width:0.8000000000000002;"/><text fill="#000000" font-family="sans-serif" font-size="11.2" lengthAdjust="spacing" textLength="237.3109" x="1138.144" y="262.5961">generatePrescription(Patient patient): String</text></g><!--class Prescription--><g id="elem_Prescription"><rect codeLine="48" fill="#F1F1F1" height="143.925" id="Prescription" rx="2" ry="2" style="stroke:#181818;stroke-width:0.4000000000000001;" width="167.9477" x="1408.024" y="170.4"/><ellipse cx="1456.3049" cy="183.2" fill="#ADD1B2" rx="8.8" ry="8.8" style="stroke:#181818;stroke-width:0.8000000000000002;"/><path d="M1458.6834,187.7145 Q1458.2185,187.9535 1457.7072,188.073 Q1457.1959,188.1926 1456.6314,188.1926 Q1454.626,188.1926 1453.5701,186.8711 Q1452.5142,185.5496 1452.5142,183.0527 Q1452.5142,180.5492 1453.5701,179.2277 Q1454.626,177.9063 1456.6314,177.9063 Q1457.1959,177.9063 1457.7138,178.0258 Q1458.2318,178.1453 1458.6834,178.3844 L1458.6834,180.5625 Q1458.1787,180.0977 1457.7039,179.8818 Q1457.2291,179.666 1456.7244,179.666 Q1455.6486,179.666 1455.1008,180.5193 Q1454.5529,181.3727 1454.5529,183.0527 Q1454.5529,184.7262 1455.1008,185.5795 Q1455.6486,186.4328 1456.7244,186.4328 Q1457.2291,186.4328 1457.7039,186.217 Q1458.1787,186.0012 1458.6834,185.5363 Z " fill="#000000"/><text fill="#000000" font-family="sans-serif" font-size="11.2" lengthAdjust="spacing" textLength="64.5859" x="1472.7049" y="187.4328">Prescription</text><line style="stroke:#181818;stroke-width:0.4000000000000001;" x1="1408.824" x2="1575.1717" y1="196" y2="196"/><rect fill="none" height="4.8" style="stroke:#C82930;stroke-width:0.8000000000000002;" width="4.8" x="1414.424" y="204.5953"/><text fill="#000000" font-family="sans-serif" font-size="11.2" lengthAdjust="spacing" textLength="129.8063" x="1424.024" y="210.0281">dailyDosageCount: long</text><rect fill="none" height="4.8" style="stroke:#C82930;stroke-width:0.8000000000000002;" width="4.8" x="1414.424" y="217.7859"/><text fill="#000000" font-family="sans-serif" font-size="11.2" lengthAdjust="spacing" textLength="77.1641" x="1424.024" y="223.2188">duration: long</text><rect fill="none" height="4.8" style="stroke:#C82930;stroke-width:0.8000000000000002;" width="4.8" x="1414.424" y="230.9766"/><text fill="#000000" font-family="sans-serif" font-size="11.2" lengthAdjust="spacing" textLength="105.6563" x="1424.024" y="236.4094">diseaseType: String</text><rect fill="none" height="4.8" style="stroke:#C82930;stroke-width:0.8000000000000002;" width="4.8" x="1414.424" y="244.1672"/><text fill="#000000" font-family="sans-serif" font-size="11.2" lengthAdjust="spacing" textLength="97.9945" x="1424.024" y="249.6">surgeryDate: Date</text><rect fill="none" height="4.8" style="stroke:#C82930;stroke-width:0.8000000000000002;" width="4.8" x="1414.424" y="257.3578"/><text fill="#000000" font-family="sans-serif" font-size="11.2" lengthAdjust="spacing" textLength="92.7172" x="1424.024" y="262.7906">riskFactor: String</text><rect fill="none" height="4.8" style="stroke:#C82930;stroke-width:0.8000000000000002;" width="4.8" x="1414.424" y="270.5484"/><text fill="#000000" font-family="sans-serif" font-size="11.2" lengthAdjust="spacing" textLength="147.1477" x="1424.024" y="275.9813">isFastingRequired: boolean</text><rect fill="none" height="4.8" style="stroke:#C82930;stroke-width:0.8000000000000002;" width="4.8" x="1414.424" y="283.7391"/><text fill="#000000" font-family="sans-serif" font-size="11.2" lengthAdjust="spacing" textLength="104.8852" x="1424.024" y="289.1719">followUpDate: Date</text><rect fill="none" height="4.8" style="stroke:#C82930;stroke-width:0.8000000000000002;" width="4.8" x="1414.424" y="296.9297"/><text fill="#000000" font-family="sans-serif" font-size="11.2" lengthAdjust="spacing" textLength="130.3805" x="1424.024" y="302.3625">medicationName: String</text><line style="stroke:#181818;stroke-width:0.4000000000000001;" x1="1408.824" x2="1575.1717" y1="307.925" y2="307.925"/></g><!--class TreatmentPlan--><g id="elem_TreatmentPlan"><rect codeLine="61" fill="#F1F1F1" height="51.5906" id="TreatmentPlan" rx="2" ry="2" style="stroke:#181818;stroke-width:0.4000000000000001;" width="257.7664" x="1620.72" y="483.264"/><ellipse cx="1706.8638" cy="496.064" fill="#B4A7E5" rx="8.8" ry="8.8" style="stroke:#181818;stroke-width:0.8000000000000002;"/><path d="M1703.6059,492.6761 L1703.6059,490.9495 L1709.5095,490.9495 L1709.5095,492.6761 L1707.5372,492.6761 L1707.5372,499.1374 L1709.5095,499.1374 L1709.5095,500.864 L1703.6059,500.864 L1703.6059,499.1374 L1705.5782,499.1374 L1705.5782,492.6761 Z " fill="#000000"/><text fill="#000000" font-family="sans-serif" font-size="11.2" font-style="italic" lengthAdjust="spacing" textLength="78.6789" x="1723.2638" y="500.2968">TreatmentPlan</text><line style="stroke:#181818;stroke-width:0.4000000000000001;" x1="1621.52" x2="1877.6864" y1="508.864" y2="508.864"/><line style="stroke:#181818;stroke-width:0.4000000000000001;" x1="1621.52" x2="1877.6864" y1="515.264" y2="515.264"/><ellipse cx="1629.52" cy="526.2593" fill="#84BE84" rx="2.4" ry="2.4" style="stroke:#038048;stroke-width:0.8000000000000002;"/><text fill="#000000" font-family="sans-serif" font-size="11.2" lengthAdjust="spacing" textLength="236.9664" x="1636.72" y="529.2921">createTreatmentPlan(Patient patient): String</text></g><!--class MedicationTreatmentPlan--><g id="elem_MedicationTreatmentPlan"><rect codeLine="64" fill="#F1F1F1" height="51.5906" id="MedicationTreatmentPlan" rx="2" ry="2" style="stroke:#181818;stroke-width:0.4000000000000001;" width="257.7664" x="1620.72" y="216.568"/><ellipse cx="1677.1876" cy="229.368" fill="#ADD1B2" rx="8.8" ry="8.8" style="stroke:#181818;stroke-width:0.8000000000000002;"/><path d="M1679.5661,233.8825 Q1679.1013,234.1215 1678.5899,234.241 Q1678.0786,234.3606 1677.5141,234.3606 Q1675.5087,234.3606 1674.4528,233.0391 Q1673.397,231.7176 1673.397,229.2207 Q1673.397,226.7172 1674.4528,225.3957 Q1675.5087,224.0743 1677.5141,224.0743 Q1678.0786,224.0743 1678.5966,224.1938 Q1679.1145,224.3133 1679.5661,224.5524 L1679.5661,226.7305 Q1679.0614,226.2657 1678.5866,226.0498 Q1678.1118,225.834 1677.6071,225.834 Q1676.5313,225.834 1675.9835,226.6873 Q1675.4356,227.5407 1675.4356,229.2207 Q1675.4356,230.8942 1675.9835,231.7475 Q1676.5313,232.6008 1677.6071,232.6008 Q1678.1118,232.6008 1678.5866,232.385 Q1679.0614,232.1692 1679.5661,231.7043 Z " fill="#000000"/><text fill="#000000" font-family="sans-serif" font-size="11.2" lengthAdjust="spacing" textLength="138.0313" x="1693.5876" y="233.6008">MedicationTreatmentPlan</text><line style="stroke:#181818;stroke-width:0.4000000000000001;" x1="1621.52" x2="1877.6864" y1="242.168" y2="242.168"/><line style="stroke:#181818;stroke-width:0.4000000000000001;" x1="1621.52" x2="1877.6864" y1="248.568" y2="248.568"/><ellipse cx="1629.52" cy="259.5633" fill="#84BE84" rx="2.4" ry="2.4" style="stroke:#038048;stroke-width:0.8000000000000002;"/><text fill="#000000" font-family="sans-serif" font-size="11.2" lengthAdjust="spacing" textLength="236.9664" x="1636.72" y="262.5961">createTreatmentPlan(Patient patient): String</text></g><!--class SurgeryTreatmentPlan--><g id="elem_SurgeryTreatmentPlan"><rect codeLine="67" fill="#F1F1F1" height="51.5906" id="SurgeryTreatmentPlan" rx="2" ry="2" style="stroke:#181818;stroke-width:0.4000000000000001;" width="257.7664" x="1906.32" y="216.568"/><ellipse cx="1971.852" cy="229.368" fill="#ADD1B2" rx="8.8" ry="8.8" style="stroke:#181818;stroke-width:0.8000000000000002;"/><path d="M1974.2305,233.8825 Q1973.7657,234.1215 1973.2544,234.241 Q1972.743,234.3606 1972.1786,234.3606 Q1970.1731,234.3606 1969.1173,233.0391 Q1968.0614,231.7176 1968.0614,229.2207 Q1968.0614,226.7172 1969.1173,225.3957 Q1970.1731,224.0743 1972.1786,224.0743 Q1972.743,224.0743 1973.261,224.1938 Q1973.779,224.3133 1974.2305,224.5524 L1974.2305,226.7305 Q1973.7259,226.2657 1973.2511,226.0498 Q1972.7763,225.834 1972.2716,225.834 Q1971.1958,225.834 1970.6479,226.6873 Q1970.1001,227.5407 1970.1001,229.2207 Q1970.1001,230.8942 1970.6479,231.7475 Q1971.1958,232.6008 1972.2716,232.6008 Q1972.7763,232.6008 1973.2511,232.385 Q1973.7259,232.1692 1974.2305,231.7043 Z " fill="#000000"/><text fill="#000000" font-family="sans-serif" font-size="11.2" lengthAdjust="spacing" textLength="119.9023" x="1988.252" y="233.6008">SurgeryTreatmentPlan</text><line style="stroke:#181818;stroke-width:0.4000000000000001;" x1="1907.12" x2="2163.2864" y1="242.168" y2="242.168"/><line style="stroke:#181818;stroke-width:0.4000000000000001;" x1="1907.12" x2="2163.2864" y1="248.568" y2="248.568"/><ellipse cx="1915.12" cy="259.5633" fill="#84BE84" rx="2.4" ry="2.4" style="stroke:#038048;stroke-width:0.8000000000000002;"/><text fill="#000000" font-family="sans-serif" font-size="11.2" lengthAdjust="spacing" textLength="236.9664" x="1922.32" y="262.5961">createTreatmentPlan(Patient patient): String</text></g><!--class Constants--><g id="elem_Constants"><rect codeLine="74" fill="#F1F1F1" height="196.6875" id="Constants" rx="2" ry="2" style="stroke:#181818;stroke-width:0.4000000000000001;" width="174.3898" x="2343.208" y="144.024"/><ellipse cx="2399.7467" cy="156.824" fill="#ADD1B2" rx="8.8" ry="8.8" style="stroke:#181818;stroke-width:0.8000000000000002;"/><path d="M2402.1252,161.3385 Q2401.6603,161.5775 2401.149,161.697 Q2400.6377,161.8166 2400.0732,161.8166 Q2398.0678,161.8166 2397.0119,160.4951 Q2395.956,159.1736 2395.956,156.6767 Q2395.956,154.1732 2397.0119,152.8517 Q2398.0678,151.5303 2400.0732,151.5303 Q2400.6377,151.5303 2401.1557,151.6498 Q2401.6736,151.7693 2402.1252,152.0084 L2402.1252,154.1865 Q2401.6205,153.7217 2401.1457,153.5058 Q2400.6709,153.29 2400.1662,153.29 Q2399.0904,153.29 2398.5426,154.1433 Q2397.9947,154.9967 2397.9947,156.6767 Q2397.9947,158.3502 2398.5426,159.2035 Q2399.0904,160.0568 2400.1662,160.0568 Q2400.6709,160.0568 2401.1457,159.841 Q2401.6205,159.6252 2402.1252,159.1603 Z " fill="#000000"/><text fill="#000000" font-family="sans-serif" font-size="11.2" lengthAdjust="spacing" textLength="54.5125" x="2416.1467" y="161.0568">Constants</text><line style="stroke:#181818;stroke-width:0.4000000000000001;" x1="2344.008" x2="2516.7978" y1="169.624" y2="169.624"/><ellipse cx="2352.008" cy="180.6193" fill="none" rx="2.4" ry="2.4" style="stroke:#038048;stroke-width:0.8000000000000002;"/><text fill="#000000" font-family="sans-serif" font-size="11.2" lengthAdjust="spacing" text-decoration="underline" textLength="131.3703" x="2359.208" y="183.6521">ACUTE_DURATION: long</text><ellipse cx="2352.008" cy="193.8099" fill="none" rx="2.4" ry="2.4" style="stroke:#038048;stroke-width:0.8000000000000002;"/><text fill="#000000" font-family="sans-serif" font-size="11.2" lengthAdjust="spacing" text-decoration="underline" textLength="153.5898" x="2359.208" y="196.8428">INFECTION_DURATION: long</text><ellipse cx="2352.008" cy="207.0006" fill="none" rx="2.4" ry="2.4" style="stroke:#038048;stroke-width:0.8000000000000002;"/><text fill="#000000" font-family="sans-serif" font-size="11.2" lengthAdjust="spacing" text-decoration="underline" textLength="145.9938" x="2359.208" y="210.0334">CHRONIC_DURATION: long</text><ellipse cx="2352.008" cy="220.1912" fill="none" rx="2.4" ry="2.4" style="stroke:#038048;stroke-width:0.8000000000000002;"/><text fill="#000000" font-family="sans-serif" font-size="11.2" lengthAdjust="spacing" text-decoration="underline" textLength="75.4523" x="2359.208" y="223.224">ACUTE: String</text><ellipse cx="2352.008" cy="233.3818" fill="none" rx="2.4" ry="2.4" style="stroke:#038048;stroke-width:0.8000000000000002;"/><text fill="#000000" font-family="sans-serif" font-size="11.2" lengthAdjust="spacing" text-decoration="underline" textLength="97.6719" x="2359.208" y="236.4146">INFECTION: String</text><ellipse cx="2352.008" cy="246.5724" fill="none" rx="2.4" ry="2.4" style="stroke:#038048;stroke-width:0.8000000000000002;"/><text fill="#000000" font-family="sans-serif" font-size="11.2" lengthAdjust="spacing" text-decoration="underline" textLength="90.0758" x="2359.208" y="249.6053">CHRONIC: String</text><ellipse cx="2352.008" cy="259.7631" fill="none" rx="2.4" ry="2.4" style="stroke:#038048;stroke-width:0.8000000000000002;"/><text fill="#000000" font-family="sans-serif" font-size="11.2" lengthAdjust="spacing" text-decoration="underline" textLength="72.6305" x="2359.208" y="262.7959">CHILD: String</text><ellipse cx="2352.008" cy="272.9537" fill="none" rx="2.4" ry="2.4" style="stroke:#038048;stroke-width:0.8000000000000002;"/><text fill="#000000" font-family="sans-serif" font-size="11.2" lengthAdjust="spacing" text-decoration="underline" textLength="77.8148" x="2359.208" y="275.9865">YOUTH: String</text><ellipse cx="2352.008" cy="286.1443" fill="none" rx="2.4" ry="2.4" style="stroke:#038048;stroke-width:0.8000000000000002;"/><text fill="#000000" font-family="sans-serif" font-size="11.2" lengthAdjust="spacing" text-decoration="underline" textLength="75.9938" x="2359.208" y="289.1771">ADULT: String</text><ellipse cx="2352.008" cy="299.3349" fill="none" rx="2.4" ry="2.4" style="stroke:#038048;stroke-width:0.8000000000000002;"/><text fill="#000000" font-family="sans-serif" font-size="11.2" lengthAdjust="spacing" text-decoration="underline" textLength="66.8445" x="2359.208" y="302.3678">HIGH: String</text><ellipse cx="2352.008" cy="312.5256" fill="none" rx="2.4" ry="2.4" style="stroke:#038048;stroke-width:0.8000000000000002;"/><text fill="#000000" font-family="sans-serif" font-size="11.2" lengthAdjust="spacing" text-decoration="underline" textLength="83.8031" x="2359.208" y="315.5584">MEDIUM: String</text><ellipse cx="2352.008" cy="325.7162" fill="none" rx="2.4" ry="2.4" style="stroke:#038048;stroke-width:0.8000000000000002;"/><text fill="#000000" font-family="sans-serif" font-size="11.2" lengthAdjust="spacing" text-decoration="underline" textLength="63.3172" x="2359.208" y="328.749">LOW: String</text><line style="stroke:#181818;stroke-width:0.4000000000000001;" x1="2344.008" x2="2516.7978" y1="334.3115" y2="334.3115"/></g><!--class Physician--><g id="elem_Physician"><rect codeLine="89" fill="#F1F1F1" height="51.5906" id="Physician" rx="2" ry="2" style="stroke:#181818;stroke-width:0.4000000000000001;" width="151.2297" x="2545.984" y="216.568"/><ellipse cx="2593.1738" cy="229.368" fill="#ADD1B2" rx="8.8" ry="8.8" style="stroke:#181818;stroke-width:0.8000000000000002;"/><path d="M2595.5524,233.8825 Q2595.0875,234.1215 2594.5762,234.241 Q2594.0649,234.3606 2593.5004,234.3606 Q2591.4949,234.3606 2590.4391,233.0391 Q2589.3832,231.7176 2589.3832,229.2207 Q2589.3832,226.7172 2590.4391,225.3957 Q2591.4949,224.0743 2593.5004,224.0743 Q2594.0649,224.0743 2594.5828,224.1938 Q2595.1008,224.3133 2595.5524,224.5524 L2595.5524,226.7305 Q2595.0477,226.2657 2594.5729,226.0498 Q2594.0981,225.834 2593.5934,225.834 Q2592.5176,225.834 2591.9697,226.6873 Q2591.4219,227.5407 2591.4219,229.2207 Q2591.4219,230.8942 2591.9697,231.7475 Q2592.5176,232.6008 2593.5934,232.6008 Q2594.0981,232.6008 2594.5729,232.385 Q2595.0477,232.1692 2595.5524,231.7043 Z " fill="#000000"/><text fill="#000000" font-family="sans-serif" font-size="11.2" lengthAdjust="spacing" textLength="50.05" x="2609.5738" y="233.6008">Physician</text><line style="stroke:#181818;stroke-width:0.4000000000000001;" x1="2546.784" x2="2696.4137" y1="242.168" y2="242.168"/><line style="stroke:#181818;stroke-width:0.4000000000000001;" x1="2546.784" x2="2696.4137" y1="248.568" y2="248.568"/><ellipse cx="2554.784" cy="259.5633" fill="#84BE84" rx="2.4" ry="2.4" style="stroke:#038048;stroke-width:0.8000000000000002;"/><text fill="#000000" font-family="sans-serif" font-size="11.2" lengthAdjust="spacing" textLength="130.4297" x="2561.984" y="262.5961">main(String[] args): void</text></g><!--link Inpatient to Patient--><g id="link_Inpatient_Patient"><path codeLine="34" d="M171.696,275.088 C184.92,311.4 209.392,371.608 240.8,417.512 C243.28,421.136 242.9819,420.9359 245.7259,424.5119 " fill="none" id="Inpatient-to-Patient" style="stroke:#181818;stroke-width:0.8000000000000002;"/><polygon fill="#181818" points="248.648,428.32,246.8036,420.6598,246.2129,425.1466,241.7262,424.5559,248.648,428.32" style="stroke:#181818;stroke-width:0.8000000000000002;"/></g><!--link Outpatient to Patient--><g id="link_Outpatient_Patient"><path codeLine="35" d="M331.616,275.144 C331.176,311.704 330.4897,368.2323 329.8817,418.8163 " fill="none" id="Outpatient-to-Patient" style="stroke:#181818;stroke-width:0.8000000000000002;"/><polygon fill="#181818" points="329.824,423.616,333.1103,416.455,329.8721,419.6163,326.7108,416.3781,329.824,423.616" style="stroke:#181818;stroke-width:0.8000000000000002;"/></g><!--link PatientManagement to Patient--><g id="link_PatientManagement_Patient"><path codeLine="93" d="M565.096,294.912 C520.624,335.064 461.9867,388.0073 412.5707,432.6233 " fill="none" id="PatientManagement-to-Patient" style="stroke:#181818;stroke-width:0.8000000000000002;"/><polygon fill="#181818" points="409.008,435.84,416.4965,433.3902,411.9769,433.1594,412.2077,428.6398,409.008,435.84" style="stroke:#181818;stroke-width:0.8000000000000002;"/></g><!--link PatientManagement to TreatmentPlan--><g id="link_PatientManagement_TreatmentPlan"><path codeLine="94" d="M663.304,294.856 C700.048,336.8 758.104,392.88 823.2,417.512 C862.984,432.56 1547.544,413.56 1588.8,423.912 C1634.816,435.448 1678.2819,459.9563 1709.6019,480.3563 " fill="none" id="PatientManagement-to-TreatmentPlan" style="stroke:#181818;stroke-width:0.8000000000000002;"/><polygon fill="#181818" points="1713.624,482.976,1709.3374,476.365,1710.2723,480.7929,1705.8444,481.7278,1713.624,482.976" style="stroke:#181818;stroke-width:0.8000000000000002;"/></g><!--link PatientManagement to PrescriptionService--><g id="link_PatientManagement_PrescriptionService"><path codeLine="95" d="M677.48,294.84 C716.84,330.792 771.728,378.992 823.2,417.512 C855.112,441.392 889.1451,463.1167 917.8011,480.5167 " fill="none" id="PatientManagement-to-PrescriptionService" style="stroke:#181818;stroke-width:0.8000000000000002;"/><polygon fill="#181818" points="921.904,483.008,917.4105,476.5358,918.4849,480.9319,914.0888,482.0063,921.904,483.008" style="stroke:#181818;stroke-width:0.8000000000000002;"/></g><!--link OnlinePrescriptionService to PrescriptionService--><g id="link_OnlinePrescriptionService_PrescriptionService"><path codeLine="96" d="M964.8,268.344 C964.8,319.008 964.8,427.928 964.8,478.456 " fill="none" id="OnlinePrescriptionService-to-PrescriptionService" style="stroke:#181818;stroke-width:0.8000000000000002;"/><polygon fill="#181818" points="964.8,483.256,968,476.056,964.8,479.256,961.6,476.056,964.8,483.256" style="stroke:#181818;stroke-width:0.8000000000000002;"/></g><!--link PrintablePrescriptionService to PrescriptionService--><g id="link_PrintablePrescriptionService_PrescriptionService"><path codeLine="97" d="M1234.384,268.392 C1209.608,304.336 1160.528,371.064 1108,417.512 C1079.008,443.144 1046.1898,464.0214 1017.0618,480.5654 " fill="none" id="PrintablePrescriptionService-to-PrescriptionService" style="stroke:#181818;stroke-width:0.8000000000000002;"/><polygon fill="#181818" points="1012.888,482.936,1020.729,482.1626,1016.3661,480.9605,1017.5682,476.5976,1012.888,482.936" style="stroke:#181818;stroke-width:0.8000000000000002;"/></g><!--link MedicationTreatmentPlan to TreatmentPlan--><g id="link_MedicationTreatmentPlan_TreatmentPlan"><path codeLine="98" d="M1749.6,268.344 C1749.6,319.008 1749.6,427.928 1749.6,478.456 " fill="none" id="MedicationTreatmentPlan-to-TreatmentPlan" style="stroke:#181818;stroke-width:0.8000000000000002;"/><polygon fill="#181818" points="1749.6,483.256,1752.8,476.056,1749.6,479.256,1746.4,476.056,1749.6,483.256" style="stroke:#181818;stroke-width:0.8000000000000002;"/></g><!--link SurgeryTreatmentPlan to TreatmentPlan--><g id="link_SurgeryTreatmentPlan_TreatmentPlan"><path codeLine="99" d="M2018.504,268.4 C1993.912,304.352 1945.144,371.096 1892.8,417.512 C1863.84,443.184 1831.0225,464.0628 1801.8865,480.5988 " fill="none" id="SurgeryTreatmentPlan-to-TreatmentPlan" style="stroke:#181818;stroke-width:0.8000000000000002;"/><polygon fill="#181818" points="1797.712,482.968,1805.5533,482.1972,1801.1908,480.9936,1802.3943,476.6311,1797.712,482.968" style="stroke:#181818;stroke-width:0.8000000000000002;"/></g><!--SRC=[lLPRQzim57xFhz1ZHfV0oXvA7mPPqgw6t6WIoXXZdDWdhgWiUPBS4Kh- -uuI9_L5za9XzODjTBwZxzob5C8dY961Y9NydN7P3uszkhowwcz0YClFVJ26np91QJ-nbqw7qPFcEWb8-ZWHILZ-X88qs1mif_M93-6U2_OCWaTWCKUEm48t_oU2_VV3DLih9H1aHJS44MRYLNaGOtTXDPSnYzIQr8IISKKdGeiwuHB7V8CBIsPr7OhH3oaSjAiq6ebZwTxEXRa0wJ7nMV6eeXYZHEtCqsX2pLFBLKtpOyx9DboWX0IhM-qwXtSfvBbo8PgmDbP3QCk1huIxntZaTRB777M321FWea6MFYg9qonPesv0kEJEDb-vjeyD27B8aweU4ySCDN5J8YH6fyGqmGhHlsR5N5JI1L72RTSV_zUI3cJQ45kjLD8IYdC9PfbjOe0qLLpkdQL6mJVIl7hGwtqvLif9Mg2lYgj5M0XbmLGo4FK6GYp5Ue7wcTFQonjwfDwOjPX9GItzVdnpabfOYtUbz4Rxs6HSR4VAK5g6AdEjuEcdA2ChzatW4tA3O72vJPlQpMGwHhqz59vxLykVcwTRca2gQH9mSml6qlezqWcZCVBFzHxRA27KdrNQI9LWnCEzBrFVsFAEJ7iS4zvIBKttMWRFEm7-aS39oUXt85iSalNVc7QTNISztHbKVEwTuM3TK4bZGLfJCEc5LYmFTsJNOBXQtlmQhUu7os0shPHh0HTCRs-63d86TdXtFvi6mpEGU_QQspxQDb3Ermu9ngCsmFVPQddN1XYCLkDb6-0k-DQwmUHc5AmcROZnxA4atXNpE7_S6XxoKcbTq7sGo_mUzkCd0nsRubdaAiTzwrV3wd7ZHvJAjMsd-cJUevkFYZQjre7VfjZKzNvNl6rRX-x-0W00]--></g></svg>